<?xml version="1.0" encoding="UTF-8" standalone="no"?>
<!-- Created with Inkscape (http://www.inkscape.org/) -->
<svg xmlns:rdf="http://www.w3.org/1999/02/22-rdf-syntax-ns#" xmlns="http://www.w3.org/2000/svg" xmlns:cc="http://web.resource.org/cc/" xmlns:dc="http://purl.org/dc/elements/1.1/" xmlns:svg="http://www.w3.org/2000/svg" xmlns:inkscape="http://www.inkscape.org/namespaces/inkscape" xmlns:sodipodi="http://sodipodi.sourceforge.net/DTD/sodipodi-0.dtd" xmlns:ns1="http://sozi.baierouge.fr" xmlns:xlink="http://www.w3.org/1999/xlink" id="svg2" viewBox="0 0 720 720" version="1.1" inkscape:version="0.91 r13725">
  <g id="layer1" transform="translate(0 -332.36)">
    <path id="path3017" style="fill:#ff0000" d="m275.6 669.75 168.81-292.39h-168.81v292.39z"/>
    <path id="path3022" style="fill:#ff8000" d="m298.21 630.58 292.39-168.81-146.2-84.41-146.19 253.22z"/>
    <path id="path3024" style="fill:#ffff00" d="m337.38 607.96 337.62-0.0015566-84.404-146.19-253.21 146.19z"/>
    <path id="path3026" style="fill:#80ff00" d="m382.61 607.96 292.39 168.81-1e-13 -168.81h-292.39z"/>
    <path id="path3028" style="fill:#00ff00" d="m421.79 630.57 168.81 292.39 84.4-146.19-253.21-146.2z"/>
    <path id="path3030" style="fill:#00ff80" d="m444.4 669.74 0.0015566 337.62l146.2-84.44-146.2-253.22z"/>
    <path id="path3032" style="fill:#00ffff" d="m444.4 714.98-168.8 292.42l168.81-1e-12 9e-13 -292.39z"/>
    <path id="path3034" style="fill:#0080ff" d="m421.79 754.15-292.39 168.81 146.2 84.44 146.19-253.25z"/>
    <path id="path3036" style="fill:#0000ff" d="m382.62 776.76-337.62 0.0015566 84.404 146.19 253.21-146.19z"/>
    <path id="path3038" style="fill:#8000ff" d="m337.39 776.77-292.39-168.81l1.49e-12 168.81h292.39z"/>
    <path id="path3040" style="fill:#ff00ff" d="m298.21 754.15-168.81-292.38-84.4 146.19 253.21 146.19z"/>
    <path id="path3042" style="fill:#ff0080" d="m275.6 714.98-0.0015566-337.62-146.19 84.404 146.19 253.21z"/>
  </g>
  <metadata>
    <rdf:RDF>
      <cc:Work>
        <dc:format>image/svg+xml</dc:format>
        <dc:type rdf:resource="http://purl.org/dc/dcmitype/StillImage"/>
        <cc:license rdf:resource="http://creativecommons.org/licenses/publicdomain/"/>
        <dc:publisher>
          <cc:Agent rdf:about="http://openclipart.org/">
            <dc:title>Openclipart</dc:title>
          </cc:Agent>
        </dc:publisher>
        <dc:title>half regular triangle dodecagon</dc:title>
        <dc:date>2011-06-28T04:04:19</dc:date>
        <dc:description>half regular triangle dodecagon</dc:description>
        <dc:source>https://openclipart.org/detail/147541/half-regular-triangle-dodecagon-by-10binary</dc:source>
        <dc:creator>
          <cc:Agent>
            <dc:title>10binary</dc:title>
          </cc:Agent>
        </dc:creator>
        <dc:subject>
          <rdf:Bag>
            <rdf:li>dodecagon</rdf:li>
            <rdf:li>half</rdf:li>
            <rdf:li>regular</rdf:li>
            <rdf:li>triangle</rdf:li>
          </rdf:Bag>
        </dc:subject>
      </cc:Work>
      <cc:License rdf:about="http://creativecommons.org/licenses/publicdomain/">
        <cc:permits rdf:resource="http://creativecommons.org/ns#Reproduction"/>
        <cc:permits rdf:resource="http://creativecommons.org/ns#Distribution"/>
        <cc:permits rdf:resource="http://creativecommons.org/ns#DerivativeWorks"/>
      </cc:License>
    </rdf:RDF>
  </metadata>
</svg>
